<?xml version="1.0" encoding="UTF-8" standalone="no"?>
<!DOCTYPE svg PUBLIC "-//W3C//DTD SVG 1.1//EN" "http://www.w3.org/Graphics/SVG/1.1/DTD/svg11.dtd">
<svg width="100%" height="100%" viewBox="0 0 116 86" version="1.1" xmlns="http://www.w3.org/2000/svg" xmlns:xlink="http://www.w3.org/1999/xlink" xml:space="preserve" xmlns:serif="http://www.serif.com/" style="fill-rule:evenodd;clip-rule:evenodd;stroke-linejoin:round;stroke-miterlimit:2;">
    <g id="Artboard1" transform="matrix(1,0,0,0.992378,-3,-2.97713)">
        <rect x="3" y="3" width="116" height="86" style="fill:none;"/>
        <g transform="matrix(1,0,0,1.00768,-5,-5.95674)">
            <path d="M21,33.75C45,12.75 69,12.75 93,33.75C117,54.75 123,66.75 111,69.75C90,93.75 72,93.75 57,69.75C42,45.75 30,33.75 21,33.75Z" style="fill:rgb(77,255,180);fill-rule:nonzero;"/>
        </g>
        <g transform="matrix(1,0,0,1.00768,-5,-5.95674)">
            <path d="M18.629,31.041C31.402,19.865 44.228,14.4 57,14.4C69.772,14.4 82.598,19.865 95.371,31.041C104.243,38.804 110.706,45.384 114.787,50.752C117.828,54.751 119.603,58.196 120.264,61.005C121.027,64.247 120.477,66.89 118.951,68.987C117.741,70.651 115.8,72.037 112.999,72.924C101.859,85.407 91.321,91.35 81.75,91.35C71.73,91.35 62.297,85.017 53.947,71.658C45.209,57.677 37.562,47.856 30.921,42.264C27.189,39.121 23.946,37.35 21,37.35L11.419,37.35L18.629,31.041ZM111.437,65.883C112.348,65.569 113.006,65.167 113.282,64.475C113.737,63.34 113.188,61.926 112.28,60.11C109.404,54.358 102.133,46.525 90.629,36.459C79.402,26.635 68.228,21.6 57,21.6C48.421,21.6 39.874,24.539 31.31,30.309C75.149,25.608 97.337,51.717 111.437,65.883ZM33.154,34.871C33.945,35.444 34.746,36.072 35.559,36.756C42.598,42.684 50.791,53.023 60.053,67.842C66.705,78.485 73.768,84.15 81.75,84.15C89.693,84.15 98.091,78.743 107.299,68.498C93.988,54.992 73.309,31.138 33.154,34.871Z" style="fill-opacity:0.33;"/>
        </g>
    </g>
</svg>
